<svg xmlns="http://www.w3.org/2000/svg" width="310.46" height="310.46" viewBox="0 0 310.46 310.46">
  <g id="Group_3154" data-name="Group 3154" transform="translate(-844.168 -354.012)">
    <circle id="Ellipse_213" data-name="Ellipse 213" cx="115.377" cy="115.377" r="115.377" transform="matrix(0.891, -0.455, 0.455, 0.891, 844.168, 458.969)" fill="#f54f56"/>
    <g id="Group_3147" data-name="Group 3147" transform="translate(927.546 428.322)">
      <g id="Group_3146" data-name="Group 3146" transform="translate(40.27)">
        <path id="Path_3814" data-name="Path 3814" d="M415.277,210.091l-27.091-25.215a6.771,6.771,0,0,0-9.224,0l-26.969,25.215Z" transform="translate(-351.993 -183.062)" fill="#7b7b7b"/>
      </g>
      <path id="Path_3815" data-name="Path 3815" d="M455.712,193.972H341.74v48.711L378.9,271h39.643l37.165-28.317Z" transform="translate(-326.874 -166.942)" fill="#fff"/>
      <path id="Path_3816" data-name="Path 3816" d="M413.681,206.141H354.218a2.478,2.478,0,0,1,0-4.955h59.464a2.478,2.478,0,0,1,0,4.955Z" transform="translate(-312.096 -156.281)" fill="rgba(50,50,50,0.09)"/>
      <path id="Path_3817" data-name="Path 3817" d="M413.681,211.641H354.218a2.478,2.478,0,1,1,0-4.955h59.464a2.478,2.478,0,1,1,0,4.955Z" transform="translate(-312.096 -148.154)" fill="rgba(50,50,50,0.09)"/>
      <path id="Path_3818" data-name="Path 3818" d="M413.681,217.141H354.218a2.478,2.478,0,1,1,0-4.955h59.464a2.478,2.478,0,1,1,0,4.955Z" transform="translate(-312.096 -140.027)" fill="rgba(50,50,50,0.09)"/>
      <path id="Path_3819" data-name="Path 3819" d="M413.681,222.641H354.218a2.478,2.478,0,0,1,0-4.955h59.464a2.478,2.478,0,0,1,0,4.955Z" transform="translate(-312.096 -131.9)" fill="rgba(50,50,50,0.09)"/>
      <path id="Path_3820" data-name="Path 3820" d="M350.871,228.845l-.265-.2V203.474l-14.866,13.84v0Z" transform="translate(-335.74 -152.9)" fill="#7b7b7b"/>
      <path id="Path_3821" data-name="Path 3821" d="M388.047,203.474v25.168l-.515.391h0l15.379-11.717v0Z" transform="translate(-259.209 -152.9)" fill="#7b7b7b"/>
      <path id="Path_3822" data-name="Path 3822" d="M335.74,264.7h143.7l-52.031-39.643H387.77Z" transform="translate(-335.74 -121.002)" fill="#e8e8e8"/>
      <path id="Path_3823" data-name="Path 3823" d="M335.74,288.346V209.061L387.77,248.7Z" transform="translate(-335.74 -144.645)" fill="#cecece"/>
      <path id="Path_3824" data-name="Path 3824" d="M424.77,288.346V209.061L372.74,248.7Z" transform="translate(-281.066 -144.645)" fill="#cecece"/>
    </g>
    <g id="Group_3150" data-name="Group 3150" transform="translate(964.536 371.513)" opacity="0.277">
      <line id="Line_294" data-name="Line 294" y2="11.975" transform="translate(5.988)" fill="none" stroke="#f54f56" stroke-linecap="round" stroke-linejoin="round" stroke-width="1.566"/>
      <line id="Line_295" data-name="Line 295" x1="11.975" transform="translate(0 5.988)" fill="none" stroke="#f54f56" stroke-linecap="round" stroke-linejoin="round" stroke-width="1.566"/>
    </g>
    <g id="Group_3151" data-name="Group 3151" transform="translate(895.31 421.158)">
      <line id="Line_296" data-name="Line 296" y2="8.99" transform="translate(4.495)" fill="none" stroke="#f54f56" stroke-linecap="round" stroke-linejoin="round" stroke-width="1.175"/>
      <line id="Line_297" data-name="Line 297" x1="8.99" transform="translate(0 4.495)" fill="none" stroke="#f54f56" stroke-linecap="round" stroke-linejoin="round" stroke-width="1.175"/>
    </g>
    <g id="Group_3152" data-name="Group 3152" transform="translate(1068.696 402.485)" opacity="0.277">
      <line id="Line_298" data-name="Line 298" y2="8.99" transform="translate(4.495)" fill="none" stroke="#f54f56" stroke-linecap="round" stroke-linejoin="round" stroke-width="1.175"/>
      <line id="Line_299" data-name="Line 299" x1="8.99" transform="translate(0 4.495)" fill="none" stroke="#f54f56" stroke-linecap="round" stroke-linejoin="round" stroke-width="1.175"/>
    </g>
    <g id="Group_3153" data-name="Group 3153" transform="translate(1058.423 388.265)">
      <line id="Line_300" data-name="Line 300" y2="10.273" transform="translate(5.136)" fill="none" stroke="#f54f56" stroke-linecap="round" stroke-linejoin="round" stroke-width="1.343"/>
      <line id="Line_301" data-name="Line 301" x1="10.273" transform="translate(0 5.136)" fill="none" stroke="#f54f56" stroke-linecap="round" stroke-linejoin="round" stroke-width="1.343"/>
    </g>
    <circle id="Ellipse_214" data-name="Ellipse 214" cx="5.499" cy="5.499" r="5.499" transform="translate(888.806 393.402)" fill="#f84d52" opacity="0.405"/>
    <path id="Path_3830" data-name="Path 3830" d="M388.907,163.628a5.583,5.583,0,1,1-5.585-5.585A5.584,5.584,0,0,1,388.907,163.628Z" transform="translate(653.869 208.29)" fill="#f84d52"/>
    <circle id="Ellipse_215" data-name="Ellipse 215" cx="3.842" cy="3.842" r="3.842" transform="translate(934.542 383.932)" fill="#f84d52"/>
    <g id="Group_3155" data-name="Group 3155" transform="translate(877.668 372.942)">
      <path id="Path_3831" data-name="Path 3831" d="M121.57,150.64a29.07,29.07,0,1,1,29.07-29.07A29.1,29.1,0,0,1,121.57,150.64Z" fill="#ff5252"/>
      <path id="Path_3832" data-name="Path 3832" d="M179.23,203.7h0a3.46,3.46,0,0,1,0-4.894l7.1-7.1a.346.346,0,0,0,0-.489l-7.1-7.1a3.46,3.46,0,0,1,0-4.894h0a3.46,3.46,0,0,1,4.894,0l7.1,7.1a.346.346,0,0,0,.489,0l7.1-7.1a3.46,3.46,0,0,1,4.894,0h0a3.46,3.46,0,0,1,0,4.894l-7.1,7.1a.346.346,0,0,0,0,.489l7.1,7.1a3.46,3.46,0,0,1,0,4.894h0a3.46,3.46,0,0,1-4.894,0l-7.1-7.1a.346.346,0,0,0-.489,0l-7.1,7.1A3.46,3.46,0,0,1,179.23,203.7Z" transform="translate(-69.896 -69.896)" fill="#fff"/>
    </g>
  </g>
</svg>
